<svg xmlns="http://www.w3.org/2000/svg" xmlns:xlink="http://www.w3.org/1999/xlink" viewBox="0 0 30 30"><defs><path id="geara" d="M0 0h30v30H0z"/></defs><g fill-rule="evenodd"><mask id="gearb"><use xlink:href="#geara"/></mask><path d="M27.5 15.62h-3.58l-.52 1.81a8.74 8.74 0 0 1-.74 1.8l-.9 1.64 1.32 1.33 1.2 1.2-.88.88-1.2-1.2-1.33-1.33-1.65.91c-.55.3-1.15.55-1.79.74l-1.8.52v3.58h-1.26v-3.58l-1.8-.52a8.75 8.75 0 0 1-1.8-.74l-1.64-.9-1.33 1.32-1.2 1.2-.88-.88 1.2-1.2 1.33-1.33-.91-1.65a8.74 8.74 0 0 1-.74-1.79l-.52-1.8H2.5v-1.26h3.58l.52-1.8c.18-.64.43-1.24.74-1.8l.9-1.64L6.93 7.8l-1.2-1.2.88-.88 1.2 1.2 1.33 1.33 1.65-.91c.55-.3 1.15-.56 1.79-.74l1.8-.52V2.5h1.25v3.58l1.81.52c.64.18 1.24.43 1.8.74l1.64.9 1.33-1.32 1.2-1.2.88.88-1.2 1.2-1.33 1.33.91 1.65c.3.55.56 1.15.74 1.79l.52 1.8h3.58v1.25zm.45-3.75H25.8a11.3 11.3 0 0 0-.95-2.3l1.52-1.52c.8-.8.8-2.1 0-2.9l-1.52-1.52a2.05 2.05 0 0 0-2.9 0l-1.52 1.52c-.72-.4-1.5-.72-2.3-.95V2.05C18.12.92 17.2 0 16.06 0h-2.14c-1.14 0-2.06.92-2.06 2.05V4.2c-.8.23-1.58.55-2.3.95L8.05 3.63a2.05 2.05 0 0 0-2.9 0L3.63 5.15c-.8.8-.8 2.1 0 2.9l1.52 1.52c-.4.72-.72 1.5-.95 2.3H2.05C.92 11.87 0 12.8 0 13.93v2.14c0 1.14.92 2.05 2.05 2.05H4.2c.23.81.55 1.59.95 2.31l-1.52 1.52c-.8.8-.8 2.1 0 2.9l1.52 1.51a2.05 2.05 0 0 0 2.9 0l1.52-1.5c.72.39 1.5.7 2.3.94v2.15c0 1.13.92 2.05 2.06 2.05h2.14c1.14 0 2.05-.92 2.05-2.05V25.8c.81-.23 1.59-.55 2.31-.95l1.52 1.51a2.05 2.05 0 0 0 2.9 0l1.52-1.51c.8-.8.8-2.1 0-2.9l-1.52-1.52c.4-.72.72-1.5.95-2.3h2.15c1.13 0 2.05-.92 2.05-2.06v-2.14c0-1.14-.92-2.06-2.05-2.06z" mask="url(#gearb)"/><path d="M15 18.07a3.07 3.07 0 1 1 0-6.15 3.07 3.07 0 0 1 0 6.15m0-8.64a5.57 5.57 0 1 0 0 11.14 5.57 5.57 0 0 0 0-11.14"/></g></svg>
