<?xml version="1.0" standalone="no"?>
<!DOCTYPE svg PUBLIC "-//W3C//DTD SVG 20010904//EN"
 "http://www.w3.org/TR/2001/REC-SVG-20010904/DTD/svg10.dtd">
<svg version="1.0" xmlns="http://www.w3.org/2000/svg"
 width="1049.000000pt" height="589.000000pt" viewBox="0 0 1049.000000 589.000000"
 preserveAspectRatio="xMidYMid meet">
<g transform="translate(0.000000,589.000000) scale(0.100000,-0.100000)"
fill="#006183" stroke="none">
<path d="M2965 5853 c-817 -7 -1820 -34 -1978 -53 -123 -15 -225 -70 -332
-180 -155 -157 -198 -282 -226 -665 -16 -210 -24 -3163 -10 -3653 18 -621 35
-735 136 -897 112 -180 290 -288 515 -314 347 -40 852 -52 2418 -58 l1482 -5
0 2031 0 2031 -1175 0 -1175 0 0 280 0 280 2630 0 2630 0 0 -280 0 -280 -1175
0 -1175 0 0 -2031 0 -2031 1483 5 c1560 6 2079 18 2417 58 322 37 550 247 609
559 40 211 51 683 51 2300 0 1617 -11 2089 -51 2300 -29 156 -98 280 -212 387
-68 63 -188 130 -272 152 -194 49 -1621 72 -4355 69 -1081 -2 -2086 -4 -2235
-5z"/>
</g>
</svg>
